<?xml version="1.0" standalone="yes"?>
<svg xmlns="http://www.w3.org/2000/svg" width="216" height="239">
<path style="fill:#ffffff; stroke:none;" d="M0 0L0 239L216 239L216 0L0 0z"/>
<path style="fill:#b4b4b4; stroke:none;" d="M83 43L84 44L83 43z"/>
<path style="fill:#656666; stroke:none;" d="M84 43L85 44L84 43z"/>
<path style="fill:#2e2f2f; stroke:none;" d="M85 43L86 44L85 43z"/>
<path style="fill:#060606; stroke:none;" d="M87 188C87.0047 194.132 93.9677 206.239 100.972 197.397C102.769 195.129 102 190.703 102 188L124 188C124 190.703 123.231 195.129 125.028 197.397C132.032 206.239 138.995 194.132 139 188C146.516 186.639 150.997 181.603 151.826 174C153.852 155.437 152 135.679 152 117L152 68C152 61.2598 152.818 52.6275 147.606 47.3935C142.96 42.7283 136.06 43.0004 130 43C116.466 42.9991 102.487 41.9868 89 43.0934C73.9218 44.3305 74 58.1524 74 70L74 158C74 169.803 71.9362 185.272 87 188z"/>
<path style="fill:#2e2f2f; stroke:none;" d="M140 43L141 44L140 43z"/>
<path style="fill:#656666; stroke:none;" d="M141 43L142 44L141 43z"/>
<path style="fill:#b4b4b4; stroke:none;" d="M142 43L143 44L142 43M81 44L82 45L81 44z"/>
<path style="fill:#2e2f2f; stroke:none;" d="M82 44L83 45L82 44M143 44L144 45L143 44z"/>
<path style="fill:#b4b4b4; stroke:none;" d="M144 44L145 45L144 44M79 45L80 46L79 45z"/>
<path style="fill:#2e2f2f; stroke:none;" d="M80 45L81 46L80 45M145 45L146 46L145 45z"/>
<path style="fill:#b4b4b4; stroke:none;" d="M146 45L147 46L146 45M78 46L79 47L78 46M147 46L148 47L147 46M77 47L78 48L77 47M148 47L149 48L148 47M76 48L77 49L76 48z"/>
<path style="fill:#2e2f2f; stroke:none;" d="M84 48L85 49L84 48z"/>
<path style="fill:#656666; stroke:none;" d="M85 48L86 49L85 48z"/>
<path style="fill:#b4b4b4; stroke:none;" d="M86 48L86 49L140 49L122 48L86 48z"/>
<path style="fill:#656666; stroke:none;" d="M140 48L141 49L140 48z"/>
<path style="fill:#2e2f2f; stroke:none;" d="M141 48L142 49L141 48z"/>
<path style="fill:#b4b4b4; stroke:none;" d="M149 48L150 49L149 48z"/>
<path style="fill:#2e2f2f; stroke:none;" d="M76 49L77 50L76 49z"/>
<path style="fill:#656666; stroke:none;" d="M83 49L84 50L83 49z"/>
<path style="fill:#ffffff; stroke:none;" d="M80 95L146 95L146 65C146 61.0262 146.932 55.5392 144.397 52.1481C141.338 48.0565 135.477 49 131 49L95 49C90.523 49 84.6623 48.0565 81.6034 52.1481C79.0683 55.5392 80 61.0262 80 65L80 95z"/>
<path style="fill:#656666; stroke:none;" d="M142 49L143 50L142 49z"/>
<path style="fill:#2e2f2f; stroke:none;" d="M149 49L150 50L149 49z"/>
<path style="fill:#b4b4b4; stroke:none;" d="M75 50L76 51L75 50M82 50L83 51L82 50M143 50L145 52L143 50z"/>
<path style="fill:#2e2f2f; stroke:none;" d="M144 50L145 51L144 50z"/>
<path style="fill:#b4b4b4; stroke:none;" d="M150 50L151 51L150 50z"/>
<path style="fill:#2e2f2f; stroke:none;" d="M75 51L76 52L75 51z"/>
<path style="fill:#b4b4b4; stroke:none;" d="M81 51L82 52L81 51z"/>
<path style="fill:#2e2f2f; stroke:none;" d="M150 51L151 52L150 51z"/>
<path style="fill:#b4b4b4; stroke:none;" d="M74 52L75 53L74 52z"/>
<path style="fill:#656666; stroke:none;" d="M80 52L81 53L80 52M145 52L146 53L145 52z"/>
<path style="fill:#b4b4b4; stroke:none;" d="M151 52L152 53L151 52z"/>
<path style="fill:#656666; stroke:none;" d="M74 53L75 54L74 53z"/>
<path style="fill:#2e2f2f; stroke:none;" d="M79 53L80 54L79 53M146 53L147 54L146 53z"/>
<path style="fill:#656666; stroke:none;" d="M151 53L152 54L151 53z"/>
<path style="fill:#2e2f2f; stroke:none;" d="M74 54L74 57L75 57L74 54z"/>
<path style="fill:#656666; stroke:none;" d="M79 54L80 55L79 54M146 54L147 55L146 54z"/>
<path style="fill:#2e2f2f; stroke:none;" d="M151.333 54.6667L151.667 55.3333L151.333 54.6667z"/>
<path style="fill:#b4b4b4; stroke:none;" d="M79 55L79 95L80 95C80 83.566 83.411 65.5119 79 55M146 55L146 95L147 95C147 83.5659 150.411 65.512 146 55z"/>
<path style="fill:#656666; stroke:none;" d="M85 69L86 70L85 69z"/>
<path style="fill:#060606; stroke:none;" d="M86 69L85 89L89 89L88 69L86 69z"/>
<path style="fill:#656666; stroke:none;" d="M88 69L89 70L88 69z"/>
<path style="fill:#b4b4b4; stroke:none;" d="M84 70L85 71L84 70M89 70L90 71L89 70z"/>
<path style="fill:#656666; stroke:none;" d="M84 71L84 88L85 88L84 71M89 71L89 88L90 88L89 71z"/>
<path style="fill:#b4b4b4; stroke:none;" d="M84 88L85 89L84 88M89 88L90 89L89 88M85 89L86 90L85 89z"/>
<path style="fill:#2e2f2f; stroke:none;" d="M86.6667 89.3333L87.3333 89.6667L86.6667 89.3333z"/>
<path style="fill:#b4b4b4; stroke:none;" d="M88 89L89 90L88 89M79 100L79 177L80 177L80 101L146 101L146 177L147 177L147 100L79 100z"/>
<path style="fill:#ffffff; stroke:none;" d="M80 101L80 158C80 163.971 77.9517 174.756 81.7423 179.772C86.6571 186.275 104.677 183 112 183C119.776 183 136.352 186.109 142.772 181.258C148.183 177.168 146 165.942 146 160L146 101L80 101z"/>
<path style="fill:#b4b4b4; stroke:none;" d="M85 105L86 106L85 105z"/>
<path style="fill:#656666; stroke:none;" d="M86.6667 105.333L87.3333 105.667L86.6667 105.333z"/>
<path style="fill:#b4b4b4; stroke:none;" d="M88 105L90 107L88 105z"/>
<path style="fill:#060606; stroke:none;" d="M85 106L85 141L89 141L89 106L85 106z"/>
<path style="fill:#656666; stroke:none;" d="M84 107L84 140L85 140L84 107M89 107L89 140L90 140L89 107z"/>
<path style="fill:#b4b4b4; stroke:none;" d="M84 140L85 141L84 140M89 140L90 141L89 140M85 141L86 142L85 141z"/>
<path style="fill:#2e2f2f; stroke:none;" d="M86.6667 141.333L87.3333 141.667L86.6667 141.333z"/>
<path style="fill:#b4b4b4; stroke:none;" d="M88 141L89 142L88 141z"/>
<path style="fill:#2e2f2f; stroke:none;" d="M74 176L75 177L74 176M151 176L152 177L151 176z"/>
<path style="fill:#656666; stroke:none;" d="M74.3333 177.667L74.6667 178.333L74.3333 177.667M79 177L80 178L79 177M146 177L147 178L146 177M151.333 177.667L151.667 178.333L151.333 177.667z"/>
<path style="fill:#b4b4b4; stroke:none;" d="M80 178L81 179L80 178M145 178L146 179L145 178z"/>
<path style="fill:#656666; stroke:none;" d="M80 179L81 180L80 179M145 179L146 180L145 179M75 180L76 181L75 180M81 180L82 181L81 180M144 180L145 181L144 180M150 180L151 181L150 180z"/>
<path style="fill:#b4b4b4; stroke:none;" d="M75 181L76 182L75 181z"/>
<path style="fill:#656666; stroke:none;" d="M82 181L83 182L82 181M143 181L144 182L143 181z"/>
<path style="fill:#b4b4b4; stroke:none;" d="M150 181L151 182L150 181z"/>
<path style="fill:#656666; stroke:none;" d="M76 182L77 183L76 182z"/>
<path style="fill:#2e2f2f; stroke:none;" d="M83 182L84 183L83 182z"/>
<path style="fill:#b4b4b4; stroke:none;" d="M84 182L85 183L84 182M141 182L142 183L141 182z"/>
<path style="fill:#2e2f2f; stroke:none;" d="M142 182L143 183L142 182z"/>
<path style="fill:#656666; stroke:none;" d="M149 182L150 183L149 182z"/>
<path style="fill:#2e2f2f; stroke:none;" d="M77 183L78 184L77 183z"/>
<path style="fill:#656666; stroke:none;" d="M86 183L86 184L139 184L122 183L86 183z"/>
<path style="fill:#2e2f2f; stroke:none;" d="M139 183L140 184L139 183M148 183L149 184L148 183M78 184L79 185L78 184M147 184L148 185L147 184z"/>
<path style="fill:#656666; stroke:none;" d="M79 185L80 186L79 185M146 185L147 186L146 185z"/>
<path style="fill:#b4b4b4; stroke:none;" d="M80 186L81 187L80 186z"/>
<path style="fill:#2e2f2f; stroke:none;" d="M81 186L82 187L81 186M144 186L145 187L144 186z"/>
<path style="fill:#b4b4b4; stroke:none;" d="M145 186L146 187L145 186M82 187L83 188L82 187z"/>
<path style="fill:#2e2f2f; stroke:none;" d="M83 187L84 188L83 187M142 187L143 188L142 187z"/>
<path style="fill:#b4b4b4; stroke:none;" d="M143 187L144 188L143 187M85 188L86 189L85 188z"/>
<path style="fill:#656666; stroke:none;" d="M86 188L87 189L86 188M92 188L92 189L97 189L97 194C98.6213 189.733 95.9793 188.31 92 188z"/>
<path style="fill:#2e2f2f; stroke:none;" d="M97 188L98 189L97 188M102 188L103 189L102 188z"/>
<path style="fill:#656666; stroke:none;" d="M103 188L103 189L123 189L123 197C128.098 184.82 109.988 188 103 188z"/>
<path style="fill:#2e2f2f; stroke:none;" d="M123 188L124 189L123 188M128 188L129 189L128 188z"/>
<path style="fill:#656666; stroke:none;" d="M128 194L129 194L129 189L134 189C129.733 187.379 128.31 190.021 128 194M139 188L140 189L139 188z"/>
<path style="fill:#b4b4b4; stroke:none;" d="M140 188L141 189L140 188M92 189L92 194L97 194L97 193L93 193L92 189z"/>
<path style="fill:#ffffff; stroke:none;" d="M93 189L93 193L97 193L97 189L93 189z"/>
<path style="fill:#656666; stroke:none;" d="M102 189L102 197L103 197L102 189z"/>
<path style="fill:#ffffff; stroke:none;" d="M129 189L129 193L133 193L133 189L129 189z"/>
<path style="fill:#b4b4b4; stroke:none;" d="M133 189L133 193L129 193L129 194L134 194L133 189z"/>
<path style="fill:#2e2f2f; stroke:none;" d="M87 197L88 198L87 197z"/>
<path style="fill:#b4b4b4; stroke:none;" d="M102 197L103 198L102 197M123 197L124 198L123 197z"/>
<path style="fill:#2e2f2f; stroke:none;" d="M138 197L137 199L138 197M88 198L89 199L88 198z"/>
<path style="fill:#656666; stroke:none;" d="M101 198L102 199L101 198M124 198L125 199L124 198z"/>
<path style="fill:#b4b4b4; stroke:none;" d="M138 198L139 199L138 198z"/>
</svg>
